<?xml version="1.0" encoding="utf-8"?>
<!-- Generator: Adobe Illustrator 26.0.1, SVG Export Plug-In . SVG Version: 6.00 Build 0)  -->
<svg version="1.1" id="Layer_1" xmlns="http://www.w3.org/2000/svg" xmlns:xlink="http://www.w3.org/1999/xlink" x="0px" y="0px"
	 viewBox="0 0 296.3 80" style="enable-background:new 0 0 296.3 80;" xml:space="preserve">
<style type="text/css">
	.st0{fill:none;}
</style>
<g>
	<polygon points="18.7,8.9 44.6,80 61.2,80 79.9,80 79.9,0 61.2,0 61.2,71 35.4,0 18.7,0 0,0 0,80 18.7,80 	"/>
	<polygon points="260.6,0 242.9,71 225.2,0 189.4,0 189.4,80 208.1,80 208.1,8.9 225.8,80 259.9,80 277.6,8.9 277.6,80 296.3,80 
		296.3,0 	"/>
</g>
<polygon points="134.7,39.8 111.7,0 90.1,0 125.3,61 125.3,80 144,80 144,61 179.2,0 157.6,0 "/>
<polygon class="st0" points="223.1,571.7 223.1,642.8 242.7,642.8 "/>
<polygon class="st0" points="259.8,634.4 279.6,562.8 240,562.8 "/>
<polygon class="st0" points="296.5,571.8 276.9,642.8 296.5,642.8 "/>
</svg>
